<svg xmlns="http://www.w3.org/2000/svg" xmlns:xlink="http://www.w3.org/1999/xlink" version="1.1" width="1000" height="1000" viewBox="0 0 1000 1000" xml:space="preserve">
<desc>Created with Fabric.js 3.5.0</desc>
<defs>
</defs>
<rect x="0" y="0" width="100%" height="100%" fill="rgba(209,18,18,0)"/>
<g transform="matrix(6.4874 0 0 6.6845 166.7784 416.988)" id="959611">
<rect style="stroke: none; stroke-width: 1; stroke-dasharray: none; stroke-linecap: butt; stroke-dashoffset: 0; stroke-linejoin: miter; stroke-miterlimit: 4; is-custom-font: none; font-file-url: none; fill: rgb(0,172,177); fill-rule: nonzero; opacity: 1;" x="-8.5" y="-21" rx="2" ry="2" width="17" height="42"/>
</g>
<g transform="matrix(6.4874 0 0 6.6845 72.7118 420.3302)" id="8622">
<rect style="stroke: none; stroke-width: 1; stroke-dasharray: none; stroke-linecap: butt; stroke-dashoffset: 0; stroke-linejoin: miter; stroke-miterlimit: 4; is-custom-font: none; font-file-url: none; fill: rgb(0,172,177); fill-rule: nonzero; opacity: 1;" x="-8" y="-8.5" rx="2" ry="2" width="16" height="17"/>
</g>
<g transform="matrix(6.4874 0 0 6.6845 181.3508 456.1543)" id="849627">
<path style="stroke: none; stroke-width: 1; stroke-dasharray: none; stroke-linecap: butt; stroke-dashoffset: 0; stroke-linejoin: miter; stroke-miterlimit: 4; is-custom-font: none; font-file-url: none; fill: rgb(255,255,255); fill-rule: nonzero; opacity: 1;" transform=" translate(-24.7462, -28.8593)" d="M 36.4076 12.7929 C 35.9925 12.1337 35.0999 12.2367 34.8262 12.9573 C 33.5538 16.2521 30.752 18.6027 27.2315 19.1227 L 22.7892 19.7788 C 16.9032 20.6481 12.8443 26.2048 13.7274 32.1844 C 13.7857 32.5792 13.886 32.9506 13.9815 33.3285 C 17.1435 30.2273 21.9344 27.2832 29.1864 26.2121 C 29.675 26.1399 30.1348 26.487 30.2081 26.9834 C 30.2814 27.4799 29.9416 27.9451 29.453 28.0172 C 15.4931 30.079 10.8577 39.6463 10.0296 43.106 C 9.79897 44.0796 10.3871 45.0649 11.348 45.3092 C 12.3153 45.5583 13.2823 44.9601 13.5249 43.9905 C 13.5782 43.7751 14.2864 41.117 16.7626 38.2899 C 18.9275 40.5007 22.6971 42.3591 27.1177 41.2105 C 35.7407 39.2798 40.7035 30.4309 39.2671 20.7056 C 38.8489 17.8737 37.8159 15.0289 36.4076 12.7929 V 12.7929 Z" stroke-linecap="round"/>
</g>
<g transform="matrix(1 0 0 1 621.5895 416.9878)" style="" id="269098">
		
<path xml:space="preserve" font-family="Alegreya Sans SC" font-size="144" font-weight="bold" style="stroke: none; stroke-width: 0; stroke-dasharray: none; stroke-linecap: butt; stroke-dashoffset: 0; stroke-linejoin: miter; stroke-miterlimit: 4; is-custom-font: none; font-file-url: none; fill: rgb(255,255,255); fill-rule: nonzero; opacity: 1; white-space: pre;" d="M-230.98-47.64L-230.98-33.39L-277.06 30.40L-245.95 30.40L-230.26 29.11L-229.54 30.26L-231.12 45.67L-252 45.24L-289.01 45.24L-300.10 45.81L-300.10 31.84L-253.58-32.52L-282.96-32.52L-298.66-31.23L-299.52-32.24L-298.08-47.64L-239.90-47.50L-230.98-47.64ZM-183.89-28.64Q-167.47-28.64-158.54-19.28Q-149.62-9.92-149.62 7.22L-149.62 7.22Q-149.62 25.94-159.34 36.24Q-169.06 46.53-186.77 46.53L-186.77 46.53Q-203.04 46.53-211.97 36.96Q-220.90 27.38-220.90 9.96L-220.90 9.96Q-220.90-8.48-211.25-18.56Q-201.60-28.64-183.89-28.64L-183.89-28.64ZM-185.47-13.95Q-194.40-13.95-198.22-9.12Q-202.03-4.30-202.03 7.51L-202.03 7.51Q-202.03 17.01-200.38 22.41Q-198.72 27.81-195.05 30.12Q-191.38 32.42-185.18 32.42L-185.18 32.42Q-176.11 32.42-172.30 27.67Q-168.48 22.92-168.48 10.96L-168.48 10.96Q-168.48 1.46-170.21-3.94Q-171.94-9.34-175.54-11.64Q-179.14-13.95-185.47-13.95L-185.47-13.95ZM-116.78-27.48L-117.79 21.91L-117.07 45.24L-135.22 45.24L-134.50 23.64L-135.22-27.48L-116.78-27.48ZM-69.26-28.49Q-58.90-28.49-49.39-24.89L-49.39-24.89L-52.13-8.76L-54.72-8.04Q-59.33-11.50-63.65-13.23Q-67.97-14.96-71.57-14.96L-71.57-14.96Q-75.60-14.96-77.90-13.01Q-80.21-11.07-80.21-8.33L-80.21-8.33Q-80.21-5.31-77.33-3.36Q-74.45-1.42-68.26 1.17L-68.26 1.17Q-61.78 3.91-57.67 6.21Q-53.57 8.52-50.62 12.62Q-47.66 16.72-47.66 22.92L-47.66 22.92Q-47.66 29.11-50.90 34.51Q-54.14 39.91-60.70 43.22Q-67.25 46.53-76.90 46.53L-76.90 46.53Q-82.08 46.53-88.20 45.45Q-94.32 44.37-100.08 42.07L-100.08 42.07L-97.63 25.08L-95.76 23.78Q-91.01 28.10-85.10 30.69Q-79.20 33.28-74.59 33.28L-74.59 33.28Q-70.56 33.28-68.04 31.27Q-65.52 29.25-65.52 26.23L-65.52 26.23Q-65.52 23.06-68.47 21.12Q-71.42 19.17-77.62 16.72L-77.62 16.72Q-84.10 13.99-88.20 11.61Q-92.30 9.24-95.26 5.06Q-98.21 0.88-98.21-5.31L-98.21-5.31Q-98.21-11.79-94.68-17.12Q-91.15-22.44-84.60-25.47Q-78.05-28.49-69.26-28.49L-69.26-28.49ZM28.66-48.65Q42.19-48.65 52.99-43.04L52.99-43.04L49.54-26.76L47.95-26.04Q43.63-29.07 38.45-30.80Q33.26-32.52 27.79-32.52L27.79-32.52Q4.90-32.52 4.90-2.43L4.90-2.43Q4.90 13.84 10.87 21.98Q16.85 30.12 28.37 30.12L28.37 30.12Q33.70 30.12 39.38 28.46Q45.07 26.80 49.68 23.92L49.68 23.92L51.41 24.93L49.82 41.49Q38.88 46.53 26.78 46.53L26.78 46.53Q6.05 46.53-4.82 34.44Q-15.70 22.34-15.70-0.27L-15.70-0.27Q-15.70-23.31-4.10-35.98Q7.49-48.65 28.66-48.65L28.66-48.65ZM103.54-27.48L126.72 45.24L108.43 45.24L106.42 34.72L105.12 30.55L90.43 30.40L77.47 30.69L76.46 33.72L74.30 45.24L56.59 45.24L82.08-27.48L103.54-27.48ZM91.58 17.01L101.23 16.87L93.02-10.92L91.87-10.92L82.22 16.87L91.58 17.01ZM184.18 16.58Q193.82 30.55 202.18 41.06L202.18 41.06L202.03 43.08Q193.10 45.81 184.46 46.39L184.46 46.39L181.87 44.66Q173.81 30.69 169.34 21.76L169.34 21.76L158.26 21.76L158.26 21.91L158.98 45.24L140.83 45.24L141.55 23.64L140.83-27.48L172.22-27.63Q184.46-27.63 191.16-21.94Q197.86-16.25 197.86-5.74L197.86-5.74Q197.86 1.03 194.26 6.86Q190.66 12.69 184.18 16.58L184.18 16.58ZM158.98-14.09L158.54 7.94L169.34 8.52Q174.24 6.93 176.54 3.91Q178.85 0.88 178.85-3.87L178.85-3.87Q178.85-9.05 175.82-11.57Q172.80-14.09 166.32-14.38L166.32-14.38L158.98-14.09ZM246.67 31.12L266.26 30.55L267.41 31.70L266.11 45.24L216.29 45.24L217.01 23.64L216.29-27.48L266.83-27.48L267.84-26.04L266.69-12.65L247.97-13.37L234.43-13.37L234.14 1.32L247.10 1.46L259.63 1.03L260.64 2.32L259.49 16.00L245.81 15.57L233.86 15.57L233.71 21.91L234.00 31.12L246.67 31.12ZM288.29 25.80Q292.75 25.80 295.27 28.39Q297.79 30.98 297.79 35.59L297.79 35.59Q297.79 40.48 295.06 43.36Q292.32 46.24 287.57 46.24L287.57 46.24Q282.82 46.24 280.30 43.65Q277.78 41.06 277.78 36.31L277.78 36.31Q277.78 31.56 280.58 28.68Q283.39 25.80 288.29 25.80L288.29 25.80Z"/></g>
</svg>